<?xml version="1.0" standalone="no"?>
<!DOCTYPE svg PUBLIC "-//W3C//DTD SVG 20010904//EN"
 "http://www.w3.org/TR/2001/REC-SVG-20010904/DTD/svg10.dtd">
<svg version="1.0" xmlns="http://www.w3.org/2000/svg"
 width="300.000000pt" height="300.000000pt" viewBox="0 0 300.000000 300.000000"
 preserveAspectRatio="xMidYMid meet">
<metadata>
Created by potrace 1.14, written by Peter Selinger 2001-2017
</metadata>
<g transform="translate(0.000000,300.000000) scale(0.100000,-0.100000)"
fill="#000000" stroke="none">
<path d="M2407 2724 c-1 -1 -31 -5 -67 -8 -36 -4 -72 -8 -80 -11 -8 -2 -37 -6
-65 -10 -230 -28 -585 -169 -821 -324 -42 -28 -78 -51 -80 -51 -4 0 -13 -7
-129 -103 -103 -85 -279 -264 -346 -352 -127 -166 -257 -393 -319 -559 -18
-47 -37 -86 -44 -89 -6 -2 -102 -3 -214 -3 -111 1 -202 0 -202 -2 0 -2 29 -46
65 -97 l65 -93 -37 -54 c-20 -29 -49 -71 -65 -92 -15 -21 -28 -43 -28 -48 0
-4 74 -8 164 -8 l163 0 -2 -22 c-2 -13 -6 -47 -10 -77 -4 -30 -8 -103 -10
-163 -4 -118 4 -138 50 -138 39 0 52 34 59 150 3 58 8 116 10 130 2 14 7 46
11 73 l6 47 90 0 c50 0 88 -3 86 -7 -15 -25 -36 -324 -25 -353 11 -30 56 -37
80 -13 20 20 21 30 33 213 3 47 7 94 9 105 3 11 5 28 5 38 1 15 13 17 106 17
l106 0 -7 -47 c-3 -27 -8 -57 -10 -67 -2 -11 -7 -58 -11 -105 -12 -153 -5
-181 47 -181 48 0 51 7 65 190 3 41 7 85 9 97 3 11 8 42 11 67 l7 46 100 0
c95 0 99 -1 94 -20 -11 -39 -15 -55 -21 -85 -22 -122 -25 -256 -6 -278 16 -20
51 -22 74 -4 16 12 20 37 32 184 2 35 12 94 21 133 l16 70 98 0 98 0 -14 -52
c-20 -79 -46 -262 -40 -293 7 -36 24 -55 51 -55 34 0 55 31 60 91 10 104 16
145 31 207 23 104 21 102 129 102 l95 0 -21 -52 c-28 -71 -49 -166 -55 -252
-6 -67 -4 -75 16 -89 25 -17 56 -12 65 11 4 10 8 35 11 57 11 99 15 125 30
176 9 30 27 75 40 101 l24 48 476 2 475 3 -65 92 c-36 50 -66 97 -66 103 0 7
25 48 55 91 31 44 58 85 61 92 3 10 -27 12 -133 11 -134 -1 -139 0 -165 25
-28 25 -28 25 -120 13 -107 -13 -133 -18 -150 -28 -13 -8 -357 -14 -371 -6
-14 7 82 70 180 118 112 54 217 83 340 92 98 8 133 25 130 64 -3 42 -74 61
-162 44 -11 -2 -47 -7 -79 -11 -163 -18 -402 -137 -537 -265 -23 -22 -47 -41
-53 -41 -28 -4 -236 -4 -236 0 0 2 17 25 38 50 142 174 339 314 538 382 150
50 213 64 346 74 131 11 141 15 141 59 0 52 -17 59 -133 52 -122 -6 -143 -10
-269 -42 -180 -47 -338 -125 -491 -243 -69 -53 -220 -211 -264 -274 -22 -31
-42 -58 -45 -58 -28 -6 -204 -3 -207 3 -3 4 16 40 42 80 159 248 368 436 626
564 96 48 297 120 363 129 22 3 46 8 53 10 7 3 47 8 90 11 42 4 86 8 97 9 11
1 38 3 61 4 68 2 104 51 65 90 -19 19 -30 20 -124 16 -82 -4 -260 -35 -411
-70 -31 -7 -107 -36 -174 -67 -35 -15 -65 -28 -67 -28 -13 0 -184 -108 -256
-161 -95 -71 -261 -234 -332 -326 -54 -70 -147 -218 -147 -233 0 -25 -47 -37
-137 -36 -50 1 -95 4 -98 8 -17 17 123 261 232 404 105 138 278 299 431 403
117 78 329 180 484 231 90 30 335 70 458 76 112 5 140 17 140 60 0 47 -24 56
-134 49 -56 -3 -117 -8 -136 -10 -19 -2 -60 -7 -90 -10 -70 -8 -276 -61 -360
-92 -99 -37 -116 -44 -218 -96 -260 -131 -478 -313 -668 -558 -99 -127 -152
-211 -217 -349 -28 -58 -54 -108 -59 -111 -6 -4 -167 -5 -175 0 -4 2 58 142
88 198 92 169 160 279 233 373 384 500 974 803 1621 834 87 5 102 8 118 27 18
22 15 57 -7 72 -9 6 -221 8 -229 1z"/>
</g>
</svg>
